<svg xmlns="http://www.w3.org/2000/svg" xmlns:xlink="http://www.w3.org/1999/xlink" xml:lang="en" height="291.2pt" width="299.9pt" viewBox="-4.6 -268.59999999999997 299.9 291.2"><path d="M 0.0,-0.0 L 72.0,-0.0 L 72.0,-72.0 L 0.0,-72.0 L 0.0,-0.0" style="stroke:black;fill:none;stroke-width:2.0;stroke-dasharray:-;stroke-linecap:round;stroke-linejoin:round;" /><path d="M 72.0,-18.0 L 90.0,-18.0" style="stroke:black;fill:none;stroke-width:2.0;stroke-dasharray:-;stroke-linecap:round;stroke-linejoin:round;" /><path d="M 72.0,-54.0 L 90.0,-54.0" style="stroke:black;fill:none;stroke-width:2.0;stroke-dasharray:-;stroke-linecap:round;stroke-linejoin:round;" /><path d="M 90.0,-18.0 L 108.0,-18.0 L 126.0,-18.0" style="stroke:black;fill:none;stroke-width:2.0;stroke-dasharray:-;stroke-linecap:round;stroke-linejoin:round;" /><path d="M 126.0,-18.0 L 126.0,-36.0 L 126.0,-54.0" style="stroke:black;fill:none;stroke-width:2.0;stroke-dasharray:-;stroke-linecap:round;stroke-linejoin:round;" /><path d="M 126.0,-54.0 L 198.0,-54.0 L 198.0,-108.0 L 126.0,-108.0 L 126.0,-54.0" style="stroke:black;fill:none;stroke-width:2.0;stroke-dasharray:-;stroke-linecap:round;stroke-linejoin:round;" /><path d="M 126.0,-72.0 L 108.0,-72.0" style="stroke:black;fill:none;stroke-width:2.0;stroke-dasharray:-;stroke-linecap:round;stroke-linejoin:round;" /><path d="M 126.0,-90.0 L 108.0,-90.0" style="stroke:black;fill:none;stroke-width:2.0;stroke-dasharray:-;stroke-linecap:round;stroke-linejoin:round;" /><path d="M 126.0,-18.0 L 171.0,-18.0 L 216.0,-18.0" style="stroke:black;fill:none;stroke-width:2.0;stroke-dasharray:-;stroke-linecap:round;stroke-linejoin:round;" /><path d="M 216.0,-18.0 L 288.0,-18.0 L 288.0,-72.0 L 216.0,-72.0 L 216.0,-18.0" style="stroke:black;fill:none;stroke-width:2.0;stroke-dasharray:-;stroke-linecap:round;stroke-linejoin:round;" /><path d="M 216.0,-36.0 L 198.0,-36.0" style="stroke:black;fill:none;stroke-width:2.0;stroke-dasharray:-;stroke-linecap:round;stroke-linejoin:round;" /><path d="M 216.0,-54.0 L 198.0,-54.0" style="stroke:black;fill:none;stroke-width:2.0;stroke-dasharray:-;stroke-linecap:round;stroke-linejoin:round;" /><path d="M 126.0,-18.0 L 126.0,-0.0 L 126.0,18.0" style="stroke:black;fill:none;stroke-width:2.0;stroke-dasharray:-;stroke-linecap:round;stroke-linejoin:round;" /><path d="M 126.0,18.0 L 198.0,18.0 L 198.0,-36.0 L 126.0,-36.0 L 126.0,18.0" style="stroke:black;fill:none;stroke-width:2.0;stroke-dasharray:-;stroke-linecap:round;stroke-linejoin:round;" /><path d="M 126.0,-0.0 L 108.0,-0.0" style="stroke:black;fill:none;stroke-width:2.0;stroke-dasharray:-;stroke-linecap:round;stroke-linejoin:round;" /><path d="M 126.0,-18.0 L 108.0,-18.0" style="stroke:black;fill:none;stroke-width:2.0;stroke-dasharray:-;stroke-linecap:round;stroke-linejoin:round;" /><path d="M 90.0,-54.0 L 189.0,-54.0 L 288.0,-54.0" style="stroke:black;fill:none;stroke-width:2.0;stroke-dasharray:-;stroke-linecap:round;stroke-linejoin:round;" /><path d="M 90.0,-18.0 L 90.0,-45.0 L 90.0,-72.0" style="stroke:black;fill:none;stroke-width:2.0;stroke-dasharray:-;stroke-linecap:round;stroke-linejoin:round;" /><path d="M 90.0,-72.0 L 90.0,-108.0 L 81.0,-110.99999999999999 L 99.0,-117.0 L 81.0,-123.0 L 99.0,-129.0 L 81.0,-135.0 L 99.0,-141.0 L 90.0,-144.0 L 90.0,-180.0" style="stroke:black;fill:none;stroke-width:2.0;stroke-dasharray:-;stroke-linecap:round;stroke-linejoin:round;" /><path d="M 90.0,-180.0 L 90.0,-189.0 L 90.0,-198.0" style="stroke:black;fill:none;stroke-width:2.0;stroke-dasharray:-;stroke-linecap:round;stroke-linejoin:round;" /><path d="M 90.0,-198.0 L 90.0,-212.4" style="stroke:black;fill:none;stroke-width:2.0;stroke-dasharray:-;stroke-linecap:round;stroke-linejoin:round;" /><path d="M 90.0,-212.4 L 83.25,-212.4" style="stroke:black;fill:none;stroke-width:2.0;stroke-dasharray:-;stroke-linecap:round;stroke-linejoin:round;" /><path d="M 90.0,-212.4 L 96.75,-212.4" style="stroke:black;fill:none;stroke-width:2.0;stroke-dasharray:-;stroke-linecap:round;stroke-linejoin:round;" /><path d="M 90.0,-54.0 L 90.0,-81.0 L 90.0,-108.0" style="stroke:black;fill:none;stroke-width:2.0;stroke-dasharray:-;stroke-linecap:round;stroke-linejoin:round;" /><path d="M 90.0,-108.0 L 90.0,-144.0 L 81.0,-147.0 L 99.0,-153.0 L 81.0,-158.99999999999997 L 99.0,-165.0 L 81.0,-171.0 L 99.0,-176.99999999999997 L 90.0,-180.0 L 90.0,-216.0" style="stroke:black;fill:none;stroke-width:2.0;stroke-dasharray:-;stroke-linecap:round;stroke-linejoin:round;" /><path d="M 90.0,-216.0 L 90.0,-225.0 L 90.0,-234.0" style="stroke:black;fill:none;stroke-width:2.0;stroke-dasharray:-;stroke-linecap:round;stroke-linejoin:round;" /><path d="M 90.0,-234.0 L 90.0,-248.4" style="stroke:black;fill:none;stroke-width:2.0;stroke-dasharray:-;stroke-linecap:round;stroke-linejoin:round;" /><path d="M 90.0,-248.4 L 83.25,-248.4" style="stroke:black;fill:none;stroke-width:2.0;stroke-dasharray:-;stroke-linecap:round;stroke-linejoin:round;" /><path d="M 90.0,-248.4 L 96.75,-248.4" style="stroke:black;fill:none;stroke-width:2.0;stroke-dasharray:-;stroke-linecap:round;stroke-linejoin:round;" /><text x="74.7" y="-31.7" dominant-baseline="ideographic" fill="black" font-size="11" font-family="sans" text-anchor="start"><tspan x="74.7" dy="11">1</tspan></text><text x="66.60000000000001" y="-32.0" dominant-baseline="central" fill="black" font-size="14" font-family="sans" text-anchor="end"><tspan x="66.60000000000001" dy="14">SDA</tspan></text><text x="74.7" y="-67.69999999999999" dominant-baseline="ideographic" fill="black" font-size="11" font-family="sans" text-anchor="start"><tspan x="74.7" dy="11">2</tspan></text><text x="66.60000000000001" y="-68.0" dominant-baseline="central" fill="black" font-size="14" font-family="sans" text-anchor="end"><tspan x="66.60000000000001" dy="14">SCL</tspan></text><text x="39.6" y="-57.6" dominant-baseline="central" fill="black" font-size="12" font-family="sans" text-anchor="middle"><tspan x="39.6" dy="12">RP2040</tspan><tspan x="39.6" dy="12">I2C Master</tspan></text><text x="123.3" y="-85.7" dominant-baseline="ideographic" fill="black" font-size="11" font-family="sans" text-anchor="end"><tspan x="123.3" dy="11">1</tspan></text><text x="131.4" y="-86.0" dominant-baseline="central" fill="black" font-size="14" font-family="sans" text-anchor="start"><tspan x="131.4" dy="14">SDA</tspan></text><text x="123.3" y="-103.7" dominant-baseline="ideographic" fill="black" font-size="11" font-family="sans" text-anchor="end"><tspan x="123.3" dy="11">2</tspan></text><text x="131.4" y="-104.0" dominant-baseline="central" fill="black" font-size="14" font-family="sans" text-anchor="start"><tspan x="131.4" dy="14">SCL</tspan></text><text x="165.6" y="-102.60000000000001" dominant-baseline="central" fill="black" font-size="12" font-family="sans" text-anchor="middle"><tspan x="165.6" dy="12">ADS1115</tspan><tspan x="165.6" dy="12">0x48</tspan></text><text x="213.29999999999998" y="-49.699999999999996" dominant-baseline="ideographic" fill="black" font-size="11" font-family="sans" text-anchor="end"><tspan x="213.29999999999998" dy="11">1</tspan></text><text x="221.4" y="-50.0" dominant-baseline="central" fill="black" font-size="14" font-family="sans" text-anchor="start"><tspan x="221.4" dy="14">SDA</tspan></text><text x="213.29999999999998" y="-67.69999999999999" dominant-baseline="ideographic" fill="black" font-size="11" font-family="sans" text-anchor="end"><tspan x="213.29999999999998" dy="11">2</tspan></text><text x="221.4" y="-68.0" dominant-baseline="central" fill="black" font-size="14" font-family="sans" text-anchor="start"><tspan x="221.4" dy="14">SCL</tspan></text><text x="255.6" y="-66.6" dominant-baseline="central" fill="black" font-size="12" font-family="sans" text-anchor="middle"><tspan x="255.6" dy="12">ADS1115</tspan><tspan x="255.6" dy="12">0x49</tspan></text><text x="123.3" y="-13.7" dominant-baseline="ideographic" fill="black" font-size="11" font-family="sans" text-anchor="end"><tspan x="123.3" dy="11">1</tspan></text><text x="131.4" y="-14.0" dominant-baseline="central" fill="black" font-size="14" font-family="sans" text-anchor="start"><tspan x="131.4" dy="14">SDA</tspan></text><text x="123.3" y="-31.7" dominant-baseline="ideographic" fill="black" font-size="11" font-family="sans" text-anchor="end"><tspan x="123.3" dy="11">2</tspan></text><text x="131.4" y="-32.0" dominant-baseline="central" fill="black" font-size="14" font-family="sans" text-anchor="start"><tspan x="131.4" dy="14">SCL</tspan></text><text x="165.6" y="-30.6" dominant-baseline="central" fill="black" font-size="12" font-family="sans" text-anchor="middle"><tspan x="165.6" dy="12">SH1107</tspan><tspan x="165.6" dy="12">0x3C</tspan></text><text x="77.4" y="-144.0" dominant-baseline="central" fill="black" font-size="12" font-family="sans" text-anchor="end"><tspan x="77.4" dy="12">4.7kΩ</tspan><tspan x="77.4" dy="12">Pullup</tspan></text><text x="90.0" y="-228.0" dominant-baseline="ideographic" fill="black" font-size="12" font-family="sans" text-anchor="middle"><tspan x="90.0" dy="12">3.3V</tspan></text><text x="77.4" y="-180.0" dominant-baseline="central" fill="black" font-size="12" font-family="sans" text-anchor="end"><tspan x="77.4" dy="12">4.7kΩ</tspan><tspan x="77.4" dy="12">Pullup</tspan></text><text x="90.0" y="-264.0" dominant-baseline="ideographic" fill="black" font-size="12" font-family="sans" text-anchor="middle"><tspan x="90.0" dy="12">3.3V</tspan></text><circle cx="126.0" cy="-18.0" r="2.6999999999999997" style="stroke:black;fill:black;stroke-width:2.0;stroke-dasharray:-;" /><circle cx="126.0" cy="-18.0" r="2.6999999999999997" style="stroke:black;fill:black;stroke-width:2.0;stroke-dasharray:-;" /><circle cx="288.0" cy="-54.0" r="2.6999999999999997" style="stroke:black;fill:black;stroke-width:2.0;stroke-dasharray:-;" /></svg>