<svg xmlns="http://www.w3.org/2000/svg" xmlns:xlink="http://www.w3.org/1999/xlink" xml:lang="en" height="171.20000000000005pt" width="304.832pt" viewBox="-66.23199999999999 -166.60000000000002 304.832 171.20000000000005"><circle cx="3.3065463576978533e-15" cy="-54.0" r="18.0" style="stroke:black;fill:none;stroke-width:2.0;stroke-dasharray:-;" /><path d="M 0.0,-0.0 L 2.204364238465236e-15,-36.0 L 2.204364238465236e-15,-36.0 M 4.408728476930472e-15,-72.0 L 4.408728476930472e-15,-72.0 L 6.613092715395707e-15,-108.0" style="stroke:black;fill:none;stroke-width:2.0;stroke-dasharray:-;stroke-linecap:round;stroke-linejoin:round;" /><path d="M 3.600000000000003,-45.0 L -3.599999999999997,-45.0" style="stroke:black;fill:none;stroke-width:2.0;stroke-dasharray:-;stroke-linecap:round;stroke-linejoin:round;" /><path d="M 3.637200993467639e-15,-59.4 L 4.078073841160686e-15,-66.60000000000001" style="stroke:black;fill:none;stroke-width:2.0;stroke-dasharray:-;stroke-linecap:round;stroke-linejoin:round;" /><path d="M 3.600000000000004,-63.0 L -3.599999999999996,-63.0" style="stroke:black;fill:none;stroke-width:2.0;stroke-dasharray:-;stroke-linecap:round;stroke-linejoin:round;" /><path d="M 6.613092715395707e-15,-108.0 L 9.000000000000005,-108.0 L 18.000000000000007,-108.0" style="stroke:black;fill:none;stroke-width:2.0;stroke-dasharray:-;stroke-linecap:round;stroke-linejoin:round;" /><path d="M 18.000000000000007,-108.0 L 54.00000000000001,-108.0 L 54.00000000000001,-117.0 L 90.0,-117.0 L 90.0,-99.0 L 54.00000000000001,-99.0 L 54.00000000000001,-108.0 M 90.0,-108.0 L 126.0,-108.0" style="stroke:black;fill:none;stroke-width:2.0;stroke-dasharray:-;stroke-linecap:round;stroke-linejoin:round;" /><path d="M 54.00000000000001,-108.0 L 90.0,-108.0" style="stroke:black;fill:none;stroke-width:2.0;stroke-dasharray:-;stroke-linecap:round;stroke-linejoin:round;" /><path d="M 126.0,-108.0 L 135.0,-108.0 L 144.0,-108.0" style="stroke:black;fill:none;stroke-width:2.0;stroke-dasharray:-;stroke-linecap:round;stroke-linejoin:round;" /><path d="M 144.0,-108.0 L 216.0,-108.0 L 216.0,-162.0 L 144.0,-162.0 L 144.0,-108.0" style="stroke:black;fill:none;stroke-width:2.0;stroke-dasharray:-;stroke-linecap:round;stroke-linejoin:round;" /><path d="M 144.0,-135.0 L 126.0,-135.0" style="stroke:black;fill:none;stroke-width:2.0;stroke-dasharray:-;stroke-linecap:round;stroke-linejoin:round;" /><path d="M 216.0,-135.0 L 234.0,-135.0" style="stroke:black;fill:none;stroke-width:2.0;stroke-dasharray:-;stroke-linecap:round;stroke-linejoin:round;" /><path d="M 180.0,-108.0 L 180.0,-90.0" style="stroke:black;fill:none;stroke-width:2.0;stroke-dasharray:-;stroke-linecap:round;stroke-linejoin:round;" /><path d="M 144.0,-108.0 L 153.0,-108.0 L 162.0,-108.0" style="stroke:black;fill:none;stroke-width:2.0;stroke-dasharray:-;stroke-linecap:round;stroke-linejoin:round;" /><path d="M 162.0,-108.0 L 162.0,-99.0 L 162.0,-90.0" style="stroke:black;fill:none;stroke-width:2.0;stroke-dasharray:-;stroke-linecap:round;stroke-linejoin:round;" /><path d="M 162.0,-90.0 L 162.0,-36.0 L 216.0,-35.99999999999999 L 216.0,-89.99999999999999 L 162.0,-90.0" style="stroke:black;fill:none;stroke-width:2.0;stroke-dasharray:-;stroke-linecap:round;stroke-linejoin:round;" /><path d="M 189.0,-90.0 L 189.0,-108.0" style="stroke:black;fill:none;stroke-width:2.0;stroke-dasharray:-;stroke-linecap:round;stroke-linejoin:round;" /><path d="M 216.0,-62.99999999999999 L 234.0,-62.999999999999986" style="stroke:black;fill:none;stroke-width:2.0;stroke-dasharray:-;stroke-linecap:round;stroke-linejoin:round;" /><path d="M 162.0,-63.0 L 144.0,-63.0" style="stroke:black;fill:none;stroke-width:2.0;stroke-dasharray:-;stroke-linecap:round;stroke-linejoin:round;" /><path d="M 162.0,-90.0 L 162.0,-81.0 L 162.0,-72.0" style="stroke:black;fill:none;stroke-width:2.0;stroke-dasharray:-;stroke-linecap:round;stroke-linejoin:round;" /><path d="M 144.0,-108.0 L 144.0,-72.0 L 143.99999999999997,-36.0" style="stroke:black;fill:none;stroke-width:2.0;stroke-dasharray:-;stroke-linecap:round;stroke-linejoin:round;" /><path d="M 143.99999999999997,-36.0 L 143.99999999999997,-21.599999999999998 L 134.99999999999997,-21.599999999999998 L 153.0,-21.599999999999998 M 137.7,-17.28 L 150.29999999999998,-17.28 M 142.2,-12.959999999999999 L 145.79999999999998,-12.959999999999999" style="stroke:black;fill:none;stroke-width:2.0;stroke-dasharray:-;stroke-linecap:round;stroke-linejoin:round;" /><text x="-21.599999999999994" y="-72.0" dominant-baseline="central" fill="black" font-size="12" font-family="sans" text-anchor="end"><tspan x="-21.599999999999994" dy="12">12V</tspan><tspan x="-21.599999999999994" dy="12">Vehicle</tspan></text><text x="72.0" y="-144.60000000000002" dominant-baseline="ideographic" fill="black" font-size="12" font-family="sans" text-anchor="middle"><tspan x="72.0" dy="12">10A</tspan><tspan x="72.0" dy="12">Fuse</tspan></text><text x="141.29999999999998" y="-148.70000000000002" dominant-baseline="ideographic" fill="black" font-size="11" font-family="sans" text-anchor="end"><tspan x="141.29999999999998" dy="11">1</tspan></text><text x="149.4" y="-149.0" dominant-baseline="central" fill="black" font-size="14" font-family="sans" text-anchor="start"><tspan x="149.4" dy="14">IN</tspan></text><text x="218.70000000000002" y="-148.70000000000002" dominant-baseline="ideographic" fill="black" font-size="11" font-family="sans" text-anchor="start"><tspan x="218.70000000000002" dy="11">2</tspan></text><text x="210.6" y="-149.0" dominant-baseline="central" fill="black" font-size="14" font-family="sans" text-anchor="end"><tspan x="210.6" dy="14">OUT</tspan></text><text x="182.70000000000002" y="-116.3" dominant-baseline="hanging" fill="black" font-size="11" font-family="sans" text-anchor="start"><tspan x="182.70000000000002" dy="11">3</tspan></text><text x="180.0" y="-127.39999999999999" dominant-baseline="ideographic" fill="black" font-size="14" font-family="sans" text-anchor="middle"><tspan x="180.0" dy="14">GND</tspan></text><text x="183.6" y="-162.6" dominant-baseline="central" fill="black" font-size="12" font-family="sans" text-anchor="middle"><tspan x="183.6" dy="12">Buck</tspan><tspan x="183.6" dy="12">Converter</tspan><tspan x="183.6" dy="12">12V→5V</tspan></text><text x="165.6" y="-129.60000000000002" dominant-baseline="central" fill="black" font-size="12" font-family="sans" text-anchor="middle"><tspan x="165.6" dy="12">5V</tspan><tspan x="165.6" dy="12">Logic</tspan></text><text x="191.70000000000002" y="-103.69999999999999" dominant-baseline="ideographic" fill="black" font-size="11" font-family="sans" text-anchor="end"><tspan x="191.70000000000002" dy="11">3</tspan></text><text x="189.0" y="-98.6" dominant-baseline="central" fill="black" font-size="14" font-family="sans" text-anchor="start"><tspan x="189.0" dy="14">GND</tspan></text><text x="218.7" y="-71.3" dominant-baseline="ideographic" fill="black" font-size="11" font-family="sans" text-anchor="start"><tspan x="218.7" dy="11">1</tspan></text><text x="210.6" y="-77.0" dominant-baseline="hanging" fill="black" font-size="14" font-family="sans" text-anchor="middle"><tspan x="210.6" dy="14">IN</tspan></text><text x="159.29999999999998" y="-71.30000000000001" dominant-baseline="hanging" fill="black" font-size="11" font-family="sans" text-anchor="start"><tspan x="159.29999999999998" dy="11">2</tspan></text><text x="167.39999999999998" y="-77.0" dominant-baseline="ideographic" fill="black" font-size="14" font-family="sans" text-anchor="middle"><tspan x="167.39999999999998" dy="14">OUT</tspan></text><text x="192.6" y="-77.4" dominant-baseline="central" fill="black" font-size="12" font-family="sans" text-anchor="middle"><tspan x="192.6" dy="12">LDO</tspan><tspan x="192.6" dy="12">5V→3.3V</tspan></text><text x="165.6" y="-86.39999999999999" dominant-baseline="central" fill="black" font-size="12" font-family="sans" text-anchor="middle"><tspan x="165.6" dy="12">3.3V</tspan><tspan x="165.6" dy="12">Analog</tspan></text><circle cx="144.0" cy="-108.0" r="2.6999999999999997" style="stroke:black;fill:black;stroke-width:2.0;stroke-dasharray:-;" /><circle cx="162.0" cy="-108.0" r="2.6999999999999997" style="stroke:black;fill:black;stroke-width:2.0;stroke-dasharray:-;" /></svg>