<svg xmlns="http://www.w3.org/2000/svg" xmlns:xlink="http://www.w3.org/1999/xlink" xml:lang="en" height="264.64pt" width="272.678pt" viewBox="-49.168 -93.0 272.678 264.64"><path d="M 22.499999999999968,151.2 L 22.499999999999968,10.8 L 124.82996655647229,10.8 L 124.82996655647229,151.2 L 22.499999999999968,151.2" style="stroke:black;fill:none;stroke-width:2;stroke-dasharray:-;stroke-linecap:round;stroke-linejoin:round;" /><path d="M 36.0 54.0 a 6.75 6.75 -270 1 1 0.0 13.5" style="stroke:black;fill:none;stroke-width:2;stroke-dasharray:-;" /><path d="M 36.0 67.5 a 6.75 6.75 -270 1 1 0.0 13.5" style="stroke:black;fill:none;stroke-width:2;stroke-dasharray:-;" /><path d="M 36.0 81.0 a 6.75 6.75 -270 1 1 0.0 13.5" style="stroke:black;fill:none;stroke-width:2;stroke-dasharray:-;" /><path d="M 36.0 94.5 a 6.75 6.75 -270 1 1 0.0 13.5" style="stroke:black;fill:none;stroke-width:2;stroke-dasharray:-;" /><polygon points="8.999999999999988,65.7 17.999999999999986,78.3 26.99999999999999,65.7 " style="stroke:black;fill:none;stroke-width:2.0;stroke-dasharray:-;stroke-linecap:round;stroke-linejoin:round;" /><path d="M 0.0,-0.0 L 9.0,-0.0 L 18.0,-0.0" style="stroke:black;fill:none;stroke-width:2.0;stroke-dasharray:-;stroke-linecap:round;stroke-linejoin:round;" /><path d="M 18.0,-0.0 L 27.0,-0.0 L 36.0,-0.0" style="stroke:black;fill:none;stroke-width:2.0;stroke-dasharray:-;stroke-linecap:round;stroke-linejoin:round;" /><path d="M 36.0,-0.0 L 35.99999999999999,54.0 M 35.99999999999998,108.0 L 35.99999999999997,162.0" style="stroke:black;fill:none;stroke-width:2;stroke-dasharray:-;stroke-linecap:round;stroke-linejoin:round;" /><path d="M 50.84996655647231,54.0 L 50.8499665564723,81.0 L 50.849966556472296,108.0" style="stroke:black;fill:none;stroke-width:2;stroke-dasharray:-;stroke-linecap:round;stroke-linejoin:round;" /><path d="M 87.02996655647229,-0.0 L 87.02996655647229,54.0 M 92.4299665564723,66.96 L 111.32996655647229,97.2 M 87.02996655647229,108.0 L 87.02996655647227,162.0" style="stroke:black;fill:none;stroke-width:2;stroke-dasharray:-;stroke-linecap:round;stroke-linejoin:round;" /><path d="M 53.5499665564723,81.0 L 65.56494983470846,81.0 L 77.57993311294462,81.0" style="stroke:black;fill:none;stroke-width:2;stroke-dasharray:2,3.3;stroke-linecap:round;stroke-linejoin:round;" /><path d="M 36.0,-0.0 L 45.0,-0.0 L 54.0,-0.0" style="stroke:black;fill:none;stroke-width:2.0;stroke-dasharray:-;stroke-linecap:round;stroke-linejoin:round;" /><path d="M 54.0,-0.0 L 54.0,-18.0 L 54.0,-36.0" style="stroke:black;fill:none;stroke-width:2.0;stroke-dasharray:-;stroke-linecap:round;stroke-linejoin:round;" /><path d="M 54.0,-36.0 L 18.0,-36.00000000000001 L -18.0,-36.00000000000001" style="stroke:black;fill:none;stroke-width:2.0;stroke-dasharray:-;stroke-linecap:round;stroke-linejoin:round;" /><path d="M -18.0,-36.00000000000001 L -18.0,-50.40000000000001" style="stroke:black;fill:none;stroke-width:2.0;stroke-dasharray:-;stroke-linecap:round;stroke-linejoin:round;" /><path d="M -18.0,-50.40000000000001 L -24.75,-50.40000000000001" style="stroke:black;fill:none;stroke-width:2.0;stroke-dasharray:-;stroke-linecap:round;stroke-linejoin:round;" /><path d="M -18.0,-50.40000000000001 L -11.25,-50.40000000000001" style="stroke:black;fill:none;stroke-width:2.0;stroke-dasharray:-;stroke-linecap:round;stroke-linejoin:round;" /><path d="M 18.0,-0.0 L 17.999999999999996,9.0 L 17.999999999999996,18.0" style="stroke:black;fill:none;stroke-width:2.0;stroke-dasharray:-;stroke-linecap:round;stroke-linejoin:round;" /><path d="M 17.999999999999996,18.0 L 17.99999999999999,65.7 M 8.999999999999984,78.3 L 26.999999999999986,78.3 M 17.999999999999986,78.3 L 17.999999999999975,126.0" style="stroke:black;fill:none;stroke-width:2.0;stroke-dasharray:-;stroke-linecap:round;stroke-linejoin:round;" /><path d="M 17.999999999999975,126.0 L 17.999999999999975,135.0 L 17.99999999999997,144.0" style="stroke:black;fill:none;stroke-width:2.0;stroke-dasharray:-;stroke-linecap:round;stroke-linejoin:round;" /><path d="M 17.99999999999997,144.0 L 17.99999999999997,158.4 L 8.999999999999972,158.4 L 26.99999999999997,158.4 M 11.699999999999973,162.71999999999997 L 24.29999999999997,162.71999999999997 M 16.19999999999997,167.04 L 19.799999999999972,167.04" style="stroke:black;fill:none;stroke-width:2.0;stroke-dasharray:-;stroke-linecap:round;stroke-linejoin:round;" /><text x="-3.599999999999999" y="-18.0" dominant-baseline="central" fill="black" font-size="12" font-family="sans" text-anchor="end"><tspan x="-3.599999999999999" dy="12">GPIO</tspan><tspan x="-3.599999999999999" dy="12">D6-D13</tspan></text><circle cx="87.02996655647229" cy="60.480000000000004" r="6.4799999999999995" style="stroke:black;fill:white;stroke-width:2;stroke-dasharray:-;" /><circle cx="87.02996655647229" cy="101.52" r="6.4799999999999995" style="stroke:black;fill:white;stroke-width:2;stroke-dasharray:-;" /><text x="73.66498327823612" y="-41.4" dominant-baseline="ideographic" fill="black" font-size="12" font-family="sans" text-anchor="middle"><tspan x="73.66498327823612" dy="12">STEMMA</tspan><tspan x="73.66498327823612" dy="12">Relay</tspan><tspan x="73.66498327823612" dy="12">10A</tspan></text><text x="57.6" y="-21.6" dominant-baseline="central" fill="black" font-size="12" font-family="sans" text-anchor="middle"><tspan x="57.6" dy="12">To Trailer</tspan><tspan x="57.6" dy="12">Connector</tspan></text><text x="-18.0" y="-66.0" dominant-baseline="ideographic" fill="black" font-size="12" font-family="sans" text-anchor="middle"><tspan x="-18.0" dy="12">12V</tspan></text><text x="5.399999999999987" y="54.0" dominant-baseline="central" fill="black" font-size="12" font-family="sans" text-anchor="end"><tspan x="5.399999999999987" dy="12">Flyback</tspan><tspan x="5.399999999999987" dy="12">Diode</tspan></text><text x="147.6" y="-93.39999999999999" dominant-baseline="central" fill="black" font-size="10" font-family="sans" text-anchor="middle"><tspan x="147.6" dy="10">STEMMA Relay Board includes:</tspan><tspan x="147.6" dy="10">- Driver transistor</tspan><tspan x="147.6" dy="10">- Flyback diode</tspan><tspan x="147.6" dy="10">- LED indicator</tspan></text><circle cx="18.0" cy="-0.0" r="2.6999999999999997" style="stroke:black;fill:black;stroke-width:2.0;stroke-dasharray:-;" /><circle cx="54.0" cy="-0.0" r="2.6999999999999997" style="stroke:black;fill:black;stroke-width:2.0;stroke-dasharray:-;" /></svg>