<svg xmlns="http://www.w3.org/2000/svg" xmlns:xlink="http://www.w3.org/1999/xlink" xml:lang="en" height="331.64pt" width="314.972pt" viewBox="-66.23199999999999 -160.0 314.972 331.64"><circle cx="3.3065463576978533e-15" cy="-54.0" r="18.0" style="stroke:black;fill:none;stroke-width:2.0;stroke-dasharray:-;" /><polygon points="153.0,-47.699999999999996 162.0,-60.3 171.0,-47.699999999999996 " style="stroke:black;fill:none;stroke-width:2.0;stroke-dasharray:-;stroke-linecap:round;stroke-linejoin:round;" /><path d="M 0.0,-0.0 L 2.204364238465236e-15,-36.0 L 2.204364238465236e-15,-36.0 M 4.408728476930472e-15,-72.0 L 4.408728476930472e-15,-72.0 L 6.613092715395707e-15,-108.0" style="stroke:black;fill:none;stroke-width:2.0;stroke-dasharray:-;stroke-linecap:round;stroke-linejoin:round;" /><path d="M 3.600000000000003,-45.0 L -3.599999999999997,-45.0" style="stroke:black;fill:none;stroke-width:2.0;stroke-dasharray:-;stroke-linecap:round;stroke-linejoin:round;" /><path d="M 3.637200993467639e-15,-59.4 L 4.078073841160686e-15,-66.60000000000001" style="stroke:black;fill:none;stroke-width:2.0;stroke-dasharray:-;stroke-linecap:round;stroke-linejoin:round;" /><path d="M 3.600000000000004,-63.0 L -3.599999999999996,-63.0" style="stroke:black;fill:none;stroke-width:2.0;stroke-dasharray:-;stroke-linecap:round;stroke-linejoin:round;" /><path d="M 6.613092715395707e-15,-108.0 L 9.000000000000005,-108.0 L 18.000000000000007,-108.0" style="stroke:black;fill:none;stroke-width:2.0;stroke-dasharray:-;stroke-linecap:round;stroke-linejoin:round;" /><path d="M 18.000000000000007,-108.0 L 54.00000000000001,-108.0 L 57.00000000000001,-117.0 L 63.00000000000001,-99.0 L 69.0,-117.0 L 75.0,-99.0 L 81.0,-117.0 L 87.00000000000001,-99.0 L 90.0,-108.0 L 126.0,-108.0" style="stroke:black;fill:none;stroke-width:2.0;stroke-dasharray:-;stroke-linecap:round;stroke-linejoin:round;" /><path d="M 126.0,-108.0 L 135.0,-108.0 L 144.0,-108.0" style="stroke:black;fill:none;stroke-width:2.0;stroke-dasharray:-;stroke-linecap:round;stroke-linejoin:round;" /><path d="M 144.0,-108.0 L 153.0,-108.0 L 162.0,-108.0" style="stroke:black;fill:none;stroke-width:2.0;stroke-dasharray:-;stroke-linecap:round;stroke-linejoin:round;" /><path d="M 162.0,-108.0 L 162.0,-60.3 M 153.0,-60.3 L 171.0,-60.3 M 162.0,-47.699999999999996 L 161.99999999999997,-0.0" style="stroke:black;fill:none;stroke-width:2.0;stroke-dasharray:-;stroke-linecap:round;stroke-linejoin:round;" /><path d="M 174.6,-63.9 L 171.0,-60.3" style="stroke:black;fill:none;stroke-width:2.0;stroke-dasharray:-;stroke-linecap:round;stroke-linejoin:round;" /><path d="M 149.39999999999998,-56.699999999999996 L 153.0,-60.3" style="stroke:black;fill:none;stroke-width:2.0;stroke-dasharray:-;stroke-linecap:round;stroke-linejoin:round;" /><path d="M 161.99999999999997,-0.0 L 80.99999999999999,-9.91963907309356e-15 L 0.0,-1.983927814618712e-14" style="stroke:black;fill:none;stroke-width:2.0;stroke-dasharray:-;stroke-linecap:round;stroke-linejoin:round;" /><path d="M 144.0,-108.0 L 144.0,-99.0 L 144.0,-90.0" style="stroke:black;fill:none;stroke-width:2.0;stroke-dasharray:-;stroke-linecap:round;stroke-linejoin:round;" /><path d="M 143.99999999999997,18.0 L 143.99999999999997,54.0 L 152.99999999999997,57.0 L 134.99999999999997,63.0 L 152.99999999999997,69.0 L 134.99999999999997,74.99999999999999 L 152.99999999999997,81.0 L 134.99999999999997,87.0 L 143.99999999999997,90.0 L 143.99999999999997,126.0" style="stroke:black;fill:none;stroke-width:2.0;stroke-dasharray:-;stroke-linecap:round;stroke-linejoin:round;" /><path d="M 143.99999999999997,126.0 L 143.99999999999997,135.0 L 143.99999999999997,144.0" style="stroke:black;fill:none;stroke-width:2.0;stroke-dasharray:-;stroke-linecap:round;stroke-linejoin:round;" /><path d="M 143.99999999999997,144.0 L 143.99999999999997,158.4 L 134.99999999999997,158.4 L 152.99999999999997,158.4 M 137.7,162.71999999999997 L 150.29999999999995,162.71999999999997 M 142.2,167.04 L 145.79999999999995,167.04" style="stroke:black;fill:none;stroke-width:2.0;stroke-dasharray:-;stroke-linecap:round;stroke-linejoin:round;" /><text x="-21.599999999999994" y="-78.0" dominant-baseline="central" fill="black" font-size="12" font-family="sans" text-anchor="end"><tspan x="-21.599999999999994" dy="12">12V</tspan><tspan x="-21.599999999999994" dy="12">Vehicle</tspan><tspan x="-21.599999999999994" dy="12">Input</tspan></text><text x="72.0" y="-144.60000000000002" dominant-baseline="ideographic" fill="black" font-size="12" font-family="sans" text-anchor="middle"><tspan x="72.0" dy="12">R1</tspan><tspan x="72.0" dy="12">10kΩ</tspan></text><text x="178.2" y="-72.0" dominant-baseline="central" fill="black" font-size="12" font-family="sans" text-anchor="start"><tspan x="178.2" dy="12">3.6V</tspan><tspan x="178.2" dy="12">Zener</tspan></text><text x="144.0" y="-75.0" dominant-baseline="central" fill="black" font-size="12" font-family="sans" text-anchor="middle"><tspan x="144.0" dy="12">+</tspan></text><text x="143.99999999999997" y="-54.0" dominant-baseline="central" fill="black" font-size="12" font-family="sans" text-anchor="middle"><tspan x="143.99999999999997" dy="12">To ADC</tspan><tspan x="143.99999999999997" dy="12">Input</tspan></text><text x="143.99999999999997" y="-21.0" dominant-baseline="central" fill="black" font-size="12" font-family="sans" text-anchor="middle"><tspan x="143.99999999999997" dy="12">−</tspan></text><text x="131.39999999999998" y="54.0" dominant-baseline="central" fill="black" font-size="12" font-family="sans" text-anchor="end"><tspan x="131.39999999999998" dy="12">R2</tspan><tspan x="131.39999999999998" dy="12">2.7kΩ</tspan></text><text x="183.6" y="-160.4" dominant-baseline="central" fill="black" font-size="10" font-family="sans" text-anchor="middle"><tspan x="183.6" dy="10">Voltage Scaling:</tspan><tspan x="183.6" dy="10">Vout = Vin × (R2/(R1+R2))</tspan><tspan x="183.6" dy="10">Vout = 12V × 0.213 = 2.55V</tspan></text><circle cx="144.0" cy="-108.0" r="2.6999999999999997" style="stroke:black;fill:black;stroke-width:2.0;stroke-dasharray:-;" /></svg>